A Life with Bears

• Among the most powerful predators on Earth, the huge and solitary grizzly bear roams the wilderness of Alaska’s Alcutian Islands.

• For 10 years, film-maker Andreas Kiesling has spent each summer recording the lives of these dangerous and unpredictable creatures at frighteningly close range.

• This time he is bringing his 10 year-old son Erik along to experience a life with grizzly bears for himself. Their dramatic adventures in this film really do push back the boundaries between man and bear.



General
Complete name                    : Z:\Unsorted\Natural.Killers.-.A.Life.With.Bears.[Norwegian].DvdRip.XviD-Knã\Natural.Killers.-.A.Life.With.Bears.[Norwegian].DvdRip.XviD-Knã.avi
Format                           : AVI
Format/Info                      : Audio Video Interleave
File size                        : 896 MiB
Duration                         : 50mn 7s
Overall bit rate                 : 2 500 Kbps
Writing application              : VirtualDubMod 1.5.4.1 (build 2178/release)
Writing library                  : VirtualDubMod build 2178/release

Video
ID                               : 0
Format                           : MPEG-4 Visual
Format profile                   : Advanced Simple@L5
Format settings, BVOP            : 1
Format settings, QPel            : No
Format settings, GMC             : No warppoints
Format settings, Matrix          : Custom
Codec ID                         : XVID
Codec ID/Hint                    : XviD
Duration                         : 50mn 7s
Bit rate                         : 2 301 Kbps
Width                            : 672 pixels
Height                           : 384 pixels
Display aspect ratio             : 16:9
Frame rate                       : 25.000 fps
Color space                      : YUV
Chroma subsampling               : 4:2:0
Bit depth                        : 8 bits
Scan type                        : Progressive
Compression mode                 : Lossy
Bits/(Pixel*Frame)               : 0.357
Stream size                      : 825 MiB (92%)
Writing library                  : XviD 1.2.1 (UTC 2008-12-04)

Audio
ID                               : 1
Format                           : AC-3
Format/Info                      : Audio Coding 3
Mode extension                   : CM (complete main)
Codec ID                         : 2000
Duration                         : 50mn 6s
Bit rate mode                    : Constant
Bit rate                         : 192 Kbps
Channel(s)                       : 2 channels
Channel positions                : Front: L R
Sampling rate                    : 48.0 KHz
Bit depth                        : 16 bits
Compression mode                 : Lossy
Stream size                      : 68.8 MiB (8%)
Alignment                        : Split accross interleaves
Interleave, duration             : 96 ms (2.40 video frames)
Interleave, preload duration     : 96 ms
Language                         : Norwegian

